<?xml version="1.0" encoding="UTF-8"?>
<svg id="Layer_2" xmlns="http://www.w3.org/2000/svg" version="1.1" viewBox="0 0 466.5 398">
  <!-- Generator: Adobe Illustrator 29.5.0, SVG Export Plug-In . SVG Version: 2.1.0 Build 137)  -->
  <defs>
    <style>
      .st0 {
        fill: #33a8df;
      }

      .st1 {
        fill: #fff;
      }
    </style>
  </defs>
  <polygon class="st1" points="213.5 180.7 272.8 180.7 275.8 163.7 216.5 163.7 213.5 180.7"/>
  <polygon class="st1" points="204.4 232.5 263.7 232.5 266.2 218.3 206.9 218.3 204.4 232.5"/>
  <path class="st1" d="M395.4,22H112.9c-25.4,0-47.1,18.5-51,43.6l-39.4,253.6c-4.6,29.8,18.4,56.7,48.6,56.7h282.4c25.4,0,47.1-18.5,51-43.7l39.4-253.6c4.6-29.8-18.4-56.7-48.6-56.7ZM326.4,153.8l-5.6,31.9c-1.2,6.8-7,11.8-13.9,12.1,6.4,3.9,9.8,11.3,8.5,18.7l-4.6,26.3c-3.9,22-23,38-45.3,38h-118.3l20.6-117.1h-17l8.1-46h0s137.1,0,137.1,0c19.1,0,33.7,17.3,30.3,36.2Z"/>
  <path class="st0" d="M449.4,24.9c-13.5-15.8-33.2-24.9-54.1-24.9H112.9c-17.5,0-34.5,6.3-47.9,17.7-13.3,11.4-22.1,27.2-24.8,44.6L.8,315.9c-3.2,20.6,2.7,41.4,16.3,57.2,13.5,15.8,33.2,24.9,54.1,24.9h291.5l.7-.7c14-1.9,27.3-7.8,38.1-17,13.3-11.4,22.1-27.2,24.8-44.6l39.4-253.6c3.2-20.6-2.7-41.4-16.3-57.2ZM444,78.7l-39.4,253.6c-3.9,25.1-25.5,43.7-51,43.7h0s-282.4,0-282.4,0c-30.2,0-53.2-26.9-48.6-56.7L62,65.6c3.9-25.1,25.5-43.6,51-43.6h282.4c30.2,0,53.2,26.9,48.6,56.7Z"/>
  <path class="st0" d="M296,117.7h-137.1,0s-8.1,46-8.1,46h17l-20.6,117.1h118.3c22.3,0,41.4-16,45.3-38l4.6-26.3c1.3-7.4-2.1-14.8-8.5-18.7,6.9-.2,12.7-5.3,13.9-12.1l5.6-31.9c3.3-18.9-11.2-36.2-30.3-36.2ZM263.7,232.5h-59.3l2.5-14.2h59.3l-2.5,14.2ZM272.8,180.7h-59.3l3-17.1h59.3l-3,17.1Z"/>
</svg>