<svg width="31" height="31" viewBox="0 0 31 31" fill="none" xmlns="http://www.w3.org/2000/svg">
<path d="M23.8894 16.1695H27.5045V24.8263H23.8894V16.1695Z" fill="#6F7072"/>
<path d="M17.0427 16.1695H20.6578V24.8263H17.0427V16.1695Z" fill="#6F7072"/>
<path d="M10.1958 16.1695H13.8109V24.8263H10.1958V16.1695Z" fill="#6F7072"/>
<path d="M3.34912 16.1695H6.96422V24.8263H3.34912V16.1695Z" fill="#6F7072"/>
<path d="M28.7113 13.4595V12.5544H2.14258V13.4595C2.14258 13.9606 2.54653 14.3646 3.04763 14.3646H27.8062C28.3073 14.3646 28.7113 13.9606 28.7113 13.4595Z" fill="#6F7072"/>
<path d="M29.9486 26.6364H0.905053C0.403951 26.6364 0 27.0404 0 27.5415V29.9498C0 30.4509 0.403951 30.8549 0.905053 30.8549H29.9537C30.4548 30.8549 30.8587 30.4509 30.8587 29.9498V27.5415C30.8587 27.0404 30.4548 26.6364 29.9537 26.6364H29.9486Z" fill="#6F7072"/>
<path d="M0.900135 10.7494H29.9488C30.3527 10.7494 30.7106 10.4784 30.818 10.0898C30.9305 9.7012 30.7669 9.28702 30.4243 9.07226L15.9025 0.134224C15.6111 -0.0447413 15.248 -0.0447413 14.9566 0.134224L0.434825 9.07226C0.092234 9.28191 -0.0713916 9.7012 0.0411009 10.0898C0.153593 10.4784 0.506411 10.7494 0.910361 10.7494H0.900135ZM14.8083 5.3191H16.0355C16.5366 5.3191 16.9405 5.72305 16.9405 6.22416C16.9405 6.72526 16.5366 7.12921 16.0355 7.12921H14.8083C14.3072 7.12921 13.9032 6.72526 13.9032 6.22416C13.9032 5.72305 14.3072 5.3191 14.8083 5.3191Z" fill="#6F7072"/>
</svg>
