<?xml version="1.0" encoding="utf-8"?>
<!-- Generator: Adobe Illustrator 28.3.0, SVG Export Plug-In . SVG Version: 6.00 Build 0)  -->
<svg version="1.1" id="Group_2753" xmlns="http://www.w3.org/2000/svg" xmlns:xlink="http://www.w3.org/1999/xlink" x="0px" y="0px"
	 viewBox="0 0 24 24" style="enable-background:new 0 0 24 24;" xml:space="preserve">
<style type="text/css">
	.st0{fill:#FFFFFF;}
</style>
<g id="FurRBG.tif">
	<g>
		<path class="st0" d="M18.7,13.2c0.2,0,0.4,0,0.6,0c0.2,0,0.3,0.1,0.3,0.3c0,1.5,0,3.1,0,4.6c0,0.2-0.1,0.3-0.3,0.3c0,0,0,0,0,0
			c-0.5,0-0.5,0-0.5,0.5c0,0.7,0,1.4,0,2.1c0,0.6-0.4,0.9-0.9,0.9c-5.4,0-10.9,0-16.3,0c-0.6,0-0.9-0.4-0.9-1c0-2.8,0-5.6,0-8.4
			c0-1.5,0-3,0-4.5c0-0.7,0.3-1,1-1c0.6,0,1.2,0,1.9,0c0.1,0,0.2,0,0.2-0.1c0-0.1,0-0.2,0-0.3C3.4,6.4,3.1,6.2,2.9,5.9
			C2.6,5.5,2.7,5.2,3.1,5.1C3.5,5,3.8,5,4.2,4.9c0.1,0,0.2-0.1,0.3-0.2C4.7,4.4,4.8,4,5,3.7c0.2-0.4,0.6-0.4,0.8,0
			C5.9,3.9,6,4.1,6.1,4.2c0.1,0.1,0.2,0.2,0.3,0.1C7,4.2,7.6,4.1,8.1,4c0.1,0,0.2-0.1,0.2-0.2c0.3-0.5,0.6-1,0.9-1.5
			C9.3,2.2,9.4,2,9.7,2c0.2,0,0.3,0.2,0.4,0.3c0.3,0.5,0.6,1,0.9,1.5C11,3.9,11.1,4,11.2,4c0.6,0.1,1.1,0.2,1.7,0.4
			c0.1,0,0.2,0,0.3-0.1c0.1-0.2,0.2-0.3,0.2-0.4c0.1-0.2,0.2-0.4,0.5-0.4c0.2,0,0.4,0.2,0.5,0.4c0.2,0.3,0.3,0.6,0.5,0.9
			c0.1,0.1,0.2,0.2,0.3,0.2C15.4,5,15.8,5,16.2,5.1c0.4,0.1,0.5,0.4,0.2,0.8c-0.2,0.3-0.5,0.5-0.7,0.8c-0.1,0.1-0.1,0.3-0.2,0.4
			c0.2,0,0.2,0,0.3,0c0.6,0,1.3,0,1.9,0c0.6,0,1,0.3,1,1c0,1.6,0,3.3,0,4.9C18.7,13,18.7,13.1,18.7,13.2z M9.7,15.9
			c2.3,0,4.6,0,6.9,0c0.4,0,0.5-0.1,0.5-0.5c0-2,0-4.1,0-6.1c0-0.3-0.1-0.4-0.4-0.4c-4.6,0-9.2,0-13.8,0c-0.4,0-0.5,0.1-0.5,0.5
			c0,2,0,4.1,0,6.1c0,0.4,0.1,0.5,0.5,0.5C5.1,15.9,7.4,15.9,9.7,15.9z M7.2,5.1C7.5,5.4,7.7,5.7,8,5.9c0.3,0.3,0.3,0.5,0.3,0.9
			C8.2,7.2,8.2,7.6,8.1,8c0.4-0.2,0.7-0.3,1.1-0.5c0.3-0.2,0.6-0.2,0.9,0c0.3,0.2,0.7,0.3,1.1,0.5c0-0.4-0.1-0.8-0.1-1.1
			C11,6.5,11,6.2,11.3,6c0.2-0.2,0.3-0.4,0.5-0.5c0.1-0.1,0.2-0.2,0.3-0.3C11.8,5,11.6,5,11.4,4.9c-1.1-0.2-0.8,0-1.4-1
			C9.9,3.7,9.8,3.5,9.7,3.3C9.4,3.7,9.2,4,9,4.4C8.9,4.6,8.7,4.8,8.4,4.8C8,4.9,7.6,5,7.2,5.1z M13.6,18.5c-0.1,0-0.2,0-0.3,0
			c-2.3,0-4.7,0-7,0c-0.6,0-0.6,0-0.6,0.6c0,0.2,0.1,0.3,0.3,0.3c2.5,0,4.9,0,7.4,0c0,0,0.1,0,0.1,0c0,0,0.1-0.1,0.1-0.1
			C13.6,19,13.6,18.8,13.6,18.5z M6.3,7.5C6.3,7.5,6.3,7.5,6.3,7.5c0-0.2,0-0.4,0-0.5c-0.1-0.3,0-0.6,0.2-0.8C6.6,6.1,6.7,6,6.7,5.9
			C6.6,5.8,6.5,5.7,6.3,5.7C6,5.7,5.8,5.5,5.7,5.3C5.6,5.1,5.5,4.9,5.4,4.8C5.3,5,5.2,5.2,5.1,5.3C5,5.5,4.8,5.6,4.6,5.7
			C4.4,5.7,4.2,5.8,4,5.8c0,0,0,0-0.1,0c0.6,0.4,0.8,1,0.6,1.7C5.1,7.1,5.7,7.1,6.3,7.5z M14.8,7.6c0-0.3,0-0.4-0.1-0.6
			c-0.1-0.3,0-0.5,0.3-0.8c0.1-0.1,0.2-0.2,0.4-0.4c-0.2,0-0.4-0.1-0.6-0.1c-0.2,0-0.4-0.2-0.5-0.4C14.1,5.1,14,5,13.9,4.8
			c-0.1,0.2-0.2,0.3-0.2,0.4c-0.1,0.3-0.4,0.5-0.8,0.6c-0.1,0-0.2,0.1-0.4,0.2c0.7,0.4,0.7,1,0.5,1.6C13.6,7.1,14.1,7.1,14.8,7.6z"
			/>
		<path class="st0" d="M20.8,16.8c0-0.1,0-0.2,0-0.3c0-3.4,0-6.8,0-10.2c0-0.2,0-0.3-0.2-0.4c-0.6-0.5-0.9-1.3-0.6-2
			c0.3-0.7,1-1.2,1.8-1.1c0.7,0.1,1.4,0.6,1.5,1.4c0.1,0.7-0.1,1.3-0.7,1.8c-0.1,0.1-0.2,0.2-0.2,0.4c0,2.9,0,5.8,0,8.7
			c0,0.9-0.5,1.5-1.3,1.7C21.1,16.8,21,16.8,20.8,16.8z"/>
		<path class="st0" d="M11.5,15c-0.4,0-0.8,0-1.2,0c-0.8,0-1.5,0-2.3,0c-0.2,0-0.2-0.1-0.2-0.2c0-1.6,0-3.2,0-4.7
			c0-0.2,0-0.3,0.2-0.2c1.1,0,2.2,0,3.3,0c0.1,0,0.1,0,0.2,0C11.5,11.5,11.5,13.2,11.5,15z M9.7,13.4c0.3-0.3,0.6-0.5,0.9-0.8
			c0.5-0.4,0.5-0.4,0.1-0.9c0-0.1-0.1-0.1-0.2-0.1c-0.5,0-1.1,0-1.6,0c-0.1,0-0.2,0-0.2,0.1c-0.1,0.2-0.2,0.4-0.3,0.5
			C8.8,12.6,9.2,13,9.7,13.4z"/>
		<path class="st0" d="M6.9,9.8c0,1.7,0,3.5,0,5.2c-1.2,0-2.4,0-3.7,0c0-1.7,0-3.5,0-5.2C4.5,9.8,5.7,9.8,6.9,9.8z M5,13.4
			c0.3-0.3,0.6-0.5,0.9-0.8c0.4-0.3,0.4-0.4,0.1-0.8c-0.1-0.1-0.2-0.2-0.3-0.2c-0.5,0-1.1,0-1.6,0c-0.1,0-0.2,0-0.2,0.1
			c-0.1,0.2-0.2,0.3-0.3,0.5C4.1,12.6,4.6,13,5,13.4z"/>
		<path class="st0" d="M12.4,12.4c0-0.8,0-1.6,0-2.4c0-0.2,0-0.2,0.2-0.2c1.1,0,2.2,0,3.2,0c0.2,0,0.2,0.1,0.2,0.2
			c0,1.6,0,3.2,0,4.8c0,0.2-0.1,0.2-0.2,0.2c-1.1,0-2.2,0-3.2,0c-0.2,0-0.2-0.1-0.2-0.2C12.4,14,12.4,13.2,12.4,12.4z M13,12.2
			c0.4,0.4,0.9,0.8,1.3,1.1c0.5-0.4,0.9-0.8,1.3-1.1c-0.1-0.2-0.2-0.4-0.3-0.5c0-0.1-0.1-0.1-0.2-0.1c-0.5,0-1.1,0-1.6,0
			c-0.1,0-0.2,0-0.2,0.1C13.2,11.9,13.1,12,13,12.2z"/>
	</g>
</g>
</svg>
