<?xml version="1.0" encoding="utf-8"?>
<!-- Generator: Adobe Illustrator 27.7.0, SVG Export Plug-In . SVG Version: 6.00 Build 0)  -->
<svg version="1.1" id="Layer_1" xmlns="http://www.w3.org/2000/svg" xmlns:xlink="http://www.w3.org/1999/xlink" x="0px" y="0px"
	 viewBox="0 0 27.5 24.1" style="enable-background:new 0 0 27.5 24.1;" xml:space="preserve">
<style type="text/css">
	.st0{fill-rule:evenodd;clip-rule:evenodd;fill:#B8B9B9;}
	.st1{fill:#B8B9B9;}
</style>
<g id="image" transform="translate(-0.005 -2.25)">
	<path id="Path_35" class="st0" d="M24.1,4H3.5c-1,0-1.7,0.8-1.7,1.7l0,0v17.2c0,1,0.8,1.7,1.7,1.7c0,0,0,0,0,0h20.7
		c1,0,1.7-0.8,1.7-1.7V5.7C25.8,4.7,25.1,4,24.1,4z M3.5,2.3C1.6,2.2,0,3.8,0,5.7c0,0,0,0,0,0v17.2c0,1.9,1.5,3.4,3.4,3.4h20.7
		c1.9,0,3.4-1.5,3.4-3.4V5.7c0-1.9-1.5-3.4-3.4-3.4H3.5z"/>
	<path id="Path_36" class="st1" d="M18.3,13.7c0.3-0.3,0.7-0.3,1-0.2l6.5,3.4v7.7H1.7v-3.4l4.6-4.1C6.6,16.8,7,16.8,7.4,17l4.6,3.1
		L18.3,13.7L18.3,13.7z"/>
	<path id="Path_37" class="st0" d="M7.8,12.6c1.4,0,2.6-1.2,2.6-2.6c0-1.4-1.2-2.6-2.6-2.6c-1.4,0-2.6,1.2-2.6,2.6c0,0,0,0,0,0
		C5.2,11.4,6.3,12.6,7.8,12.6z"/>
</g>
</svg>
