<?xml version="1.0" encoding="UTF-8"?>
<svg id="Layer_2" xmlns="http://www.w3.org/2000/svg" version="1.1" viewBox="0 0 466.5 398">
  <!-- Generator: Adobe Illustrator 29.8.2, SVG Export Plug-In . SVG Version: 2.1.1 Build 3)  -->
  <defs>
    <style>
      .st0 {
        fill: #33a8df;
      }

      .st1 {
        fill: #fff;
      }
    </style>
  </defs>
  <path class="st1" d="M395.4,22H112.9c-25.4,0-47.1,18.5-51,43.6l-39.4,253.6c-4.6,29.8,18.4,56.7,48.6,56.7h282.4c25.4,0,47.1-18.5,51-43.7l39.4-253.6c4.6-29.8-18.4-56.7-48.6-56.7h.1Z"/>
  <path class="st0" d="M449.4,24.9c-13.5-15.8-33.2-24.9-54.1-24.9H112.9c-17.5,0-34.5,6.3-47.9,17.7-13.3,11.4-22.1,27.2-24.8,44.6L.8,315.9c-3.2,20.6,2.7,41.4,16.3,57.2,13.5,15.8,33.2,24.9,54.1,24.9h291.5l.7-.7c14-1.9,27.3-7.8,38.1-17,13.3-11.4,22.1-27.2,24.8-44.6l39.4-253.6c3.2-20.6-2.7-41.4-16.3-57.2h0ZM444,78.7l-39.4,253.6c-3.9,25.1-25.5,43.7-51,43.7H71.2c-30.2,0-53.2-26.9-48.6-56.7L62,65.6c3.9-25.1,25.5-43.6,51-43.6h282.4c30.2,0,53.2,26.9,48.6,56.7Z"/>
  <path class="st0" d="M171.9,117.7l-8.1,46h17l-20.6,117.1h49.4l7.2-48h45.2l7.3-37.6h-45.9l6.1-31.6h91.8l9.1-45.6-158.5-.3h0Z"/>
</svg>