<?xml version="1.0" encoding="UTF-8"?>
<svg id="Layer_2" data-name="Layer 2" xmlns="http://www.w3.org/2000/svg" viewBox="0 0 313.16 271.87">
  <defs>
    <style>
      .cls-1 {
        fill: #fff;
      }
    </style>
  </defs>
  <g id="Layer_1-2" data-name="Layer 1">
    <g>
      <path class="cls-1" d="M221.89,48.03l13.61,7.25c.44.23,1.8.13,2.01-.21s.42-1.09.35-1.5l-2.97-18.23,13.12-12.64c.44-.42.66-1.63.46-1.96s-.92-.79-1.33-.85l-18.24-2.77L220.55.11c-.59-.1-1.81-.14-2.31-.1l-8.53,17.06-18.96,2.82c-.53.08-.83,1.96-.46,2.33l13.43,13.1-3.05,17.66c-.1.58.07,1.71.39,2.11.26.32,1.48.34,2.03.05l13.6-7.14c1.82-.96,3.12-1.08,5.2.03Z"/>
      <path class="cls-1" d="M48.88,47.59c-.71-.53-.2-2.82.47-3.26.72-.48,2.33-.62,3.16.03,19.01,14.74,40.65,25.91,64.78,29.08,2.56,2.15-.97,9.82,4.01,7.57,3.94-1.78,8.1.49,9.41,4.81,2.62,8.66-2.64,22.21-12.52,22.67-.3,8.83-4.37,17.46-10.28,23.86-.32.34-.47,1.71-.13,1.94,1.18.8,10.44.58,12.34.38,22.59-2.38,36.45-23,39.8-44.64-12.09.24-21.66-6-26.34-16.77-5.77-13.28-4.93-26.16-9.62-36.78-7.84-17.75-25.78-28.96-45.05-28.58s-36.51,12.04-43.69,29.98c-4.33,10.81-3.52,24.72-10.02,37.35-4.69,9.11-13.33,14.7-23.66,14.62-.74,0-1.67,1.14-1.51,1.89,1.77,8.62,4.64,16.43,9.42,23.72,6.88,10.5,17.43,17.83,30.11,19.19,1.8.19,11.84.69,12.57-.76.14-.28-.07-1.31-.4-1.66-5.45-5.92-9.65-14.46-10.13-22.86-10.03-.9-14.89-13.66-12.76-22.2,1.18-4.72,5.42-7.14,9.9-5.44.62.24,1.68.33,2.06-.03.32-.3.68-1.43.69-1.91l.11-5.31,15.18-18.52c.27-.33.63-1.35.5-1.74-.11-.31-.63-.78-.99-1.05l-7.41-5.58Z"/>
      <path class="cls-1" d="M170,57.45c.35.18,1.46-.09,1.6-.39s.34-1.17.27-1.58l-1.43-8.74,6.67-6.64c.31-.31.45-1.52.18-1.79-.2-.19-.86-.58-1.25-.64l-8.95-1.41-4.14-8.22c-.2-.41-1.18-1-1.59-.89-.31.08-.96.62-1.13.95l-4.18,8.11-9.12,1.41c-.43.07-1.13.68-1.26,1.03-.1.26.14,1.18.4,1.44l6.58,6.56-1.46,8.85c-.87,5.28,8.32-2.21,10.42-2.23l8.38,4.17Z"/>
      <path class="cls-1" d="M285.88,57.36c.36.18,1.23.18,1.52-.01s.66-1.18.59-1.62l-1.43-9,6.6-6.56c.37-.36.52-1.62.24-1.88-.21-.2-.82-.55-1.16-.6l-9.08-1.48-4.13-8.25c-.19-.39-1.25-.91-1.63-.78-.29.1-.9.59-1.06.91l-4.2,8.17-9.1,1.35c-.4.06-1.23.79-1.27,1.13s.21,1.13.51,1.43l6.51,6.54-1.46,8.79c-.08.48.12,1.27.29,1.62.13.26,1.37.39,1.76.2l8.25-4.09,8.27,4.12Z"/>
      <path class="cls-1" d="M113.59,104.53c-.02-.91.84-2.08,1.43-2.19,2.61-.49,3.66,2.56,6.17.35,6.03-5.33,6.75-15.01,3.85-17.21-1.88-1.42-5.57,2.09-7.16,4.17-.54.71-2.04,1.23-2.8.95-.62-.23-1.53-1.55-1.53-2.3l.02-8.07c0-1.81-1.2-2.73-2.95-3.05-16.5-3.01-31.71-9.64-45.88-18.48-1.56-.98-3.12-1.11-4.36.41l-14.11,17.3v12.45c-.01.76-1.25,2.09-2,2.25-2.91.6-3.44-5.06-8.74-5.13-2.92-.04-4.44,10.39,2.63,17.15,3.12,2.99,4.5-1.14,6.71.07.47.26,1.36,1.52,1.36,2.05,0,15.37,9.82,28.93,24.69,33.15,10.71,3.04,21.84.51,30.42-6.5,7.9-6.46,12.49-16.39,12.27-27.38Z"/>
      <path class="cls-1" d="M222.6,118.93l14.74-43.31c.67-1.96-.81-3.7-2.74-3.95-10.22-1.36-20.23-1.37-30.49,0-.96.13-2.38,1.08-2.71,1.79s-.18,2.01.13,2.92l14.6,42.8c.48,1.39,2.02,2.27,3.19,2.24,1.27-.03,2.7-.8,3.27-2.48Z"/>
      <path class="cls-1" d="M263.13,95.13c-7.92-4.05-15.44-6.95-24.34-8.67l-12.59,36.5c-.87,2.53-5.37,3.35-7.67,3.17s-5.55-1.67-6.51-4.42l-12.19-35.24c-9.08,1.82-16.83,4.86-24.5,8.86-.29.83-.11,2.11.35,2.9l37.15,64.19c4.63-1.14,8.43-1.19,13.02,0l37.32-64.5c.4-.69.69-2.43-.03-2.79Z"/>
      <path class="cls-1" d="M202.99,270.5c20.59,3.43,41.11.41,59.4-9.06.57-.29,1.22-1.55.88-2.14l-37.5-64.86c-4.58,1.48-8.28,1.46-12.86.02l-24.72,42.7c-.82,1.41-2.76,1.47-3.6.67-1.15-1.1-1.01-2.25-.23-3.61l24.35-42.16c-3.57-3.3-5.33-6.61-6.54-11.16l-50.1-.02c-1.67,0-2.52-.95-2.53-2.48,0-1.02,1.17-2.31,2.61-2.32l50.14-.03c.9-4.67,3.21-7.92,6.38-11.19l-37.21-64.37-1.3-1.51c-.74-.86-8.27,4.74-8.82,5.83l-5.45,10.75c-4.27,8.42-11.32,14.7-19.79,19.21-6.07,11.74-9.71,24.3-10.37,37.62l7.78,2.45c13.14,4.14,20.78,17.94,20.8,31.75l.03,19.32c.43.74,2.14,1.64,2.95,1.29,3.81-1.66,8.33-.47,10.78,3.15,2.08,3.07,1.51,7.74-1.07,10.47-.36.38-.6,1.54-.43,1.9s1.05.83,1.45.83l20.04.1c5.5.03,9.66,5.14,9.69,10.32l.07,11.47c.02,2.96,2.17,4.57,5.17,5.07Z"/>
      <path class="cls-1" d="M311.55,176.07c.99,0,1.65-.88,1.61-1.89-1.29-30.58-17.37-58.4-43.06-74.99-.81-.52-1.98-.3-2.51.62l-37.63,65.13c3.55,3.31,5.36,6.81,6.54,11.12h75.05Z"/>
      <path class="cls-1" d="M31.31,211.02c0-.8,1.4-2.05,2.03-2.15,14.99-2.47,31.64-1.31,44.94,6.68.75.45,2.36.47,3.12.02,13.51-7.97,29.74-9.24,44.96-6.7.97.16,2,1.39,2,2.36v30.37c0,4.08,8.57,2.28,11.38,2.37l9.71-9.66.08-27.28c.04-12.13-6.76-24.63-18.67-27.96l-21.38-5.97c-6.51-1.82-10.84-8.64-10.87-15.38l-.06-13.62c0-.69-.72-2.08-1.27-2.47s-2.01-.41-2.78-.09c-9.68,3.95-20.02,3.82-29.67-.14-.71-.29-2.26.01-2.75.49-.42.41-.96,1.6-.97,2.28l-.13,14.52c-.06,6.43-4.69,12.71-10.82,14.44l-22.04,6.22c-10.85,3.06-17.17,14.92-17.19,26.24l-.08,48.49c-.01,8.5,6.66,16.8,15.8,16.8l160.2.04c3.16,0,6.02-2.8,6.08-5.42.1-4.15.11-7.88,0-11.85-.09-3.2-2.86-5.33-5.85-5.33h-28.48c-.93,0-2.3-.94-2.46-1.68-.15-.66.28-2.16.76-2.64l6.56-6.55c1.59-1.59,1.29-3.99-.19-5.34-1.35-1.22-3.57-1.32-5.05.15l-16.79,16.74H41.63c-5.68,0-10.25-4.65-10.27-10.13l-.06-27.88Z"/>
      <path class="cls-1" d="M217.58,166.39c-7.2,1.06-11.49,7.72-10.29,14.36,1.17,6.44,7.29,10.87,13.98,9.83,6.49-1.01,11.27-7.21,10.19-13.97-1.01-6.27-6.86-11.25-13.88-10.22Z"/>
      <path class="cls-1" d="M269.7,257.26c25.81-16.57,41.96-44.1,43.43-74.61.04-.86-.92-1.79-1.75-1.79l-75.03.05c-.98,4.89-3.02,7.88-6.35,11.22l37.35,64.67c.34.58,1.86.77,2.35.46Z"/>
      <path class="cls-1" d="M123.56,215.87c0-1.58-1.59-2.84-2.87-2.94-14.13-1.11-27.83.27-39.61,8.64-.92.65-2.47.04-3.37-.6-10.79-7.8-25.63-9.08-38.66-8-1.58.13-2.93,1.56-2.92,3.13l.02,22.5c0,3.01,2.32,5.6,5.49,5.6h78.9c1.77,0,3.03-1.58,3.03-3.11v-25.21Z"/>
    </g>
  </g>
</svg>