<?xml version="1.0" encoding="UTF-8"?>
<svg id="Layer_2" data-name="Layer 2" xmlns="http://www.w3.org/2000/svg" viewBox="0 0 461.73 278.45">
  <defs>
    <style>
      .cls-1 {
        fill: #fff;
        stroke-width: 0px;
      }
    </style>
  </defs>
  <g id="Layer_2-2" data-name="Layer 2">
    <g>
      <polygon class="cls-1" points="268.84 142.05 325.65 119.59 337.21 132.8 325.65 154.22 268.84 142.05"/>
      <polygon class="cls-1" points="333.91 115.62 344.81 128.83 333.91 154.22 344.81 147.99 349.76 136.9 356.04 143.04 361.65 140.72 350.75 127.84 354.72 99.77 347.78 122.56 338.86 111.99 333.91 115.62"/>
      <path class="cls-1" d="M407.26,137.29c-.14-.95-.36-1.9-.7-2.84-3.96-11.23-14.86-39.3-14.86-39.3,0,0-7.27-13.54-23.12-10.24-15.85,3.3-61.1,16.51-61.1,16.51l-12.88,3.3-16.22-8.44c-5.08-2.64-11.11-2.74-16.25-.22-9.46,4.63-19.73,10.49-30.29,17.91-7.71,5.42-14.5,10.93-20.42,16.24.91,2.92,1.02,3.25,1.93,6.17l36.66,4.35,1.32-2.97c17.39-8.17,31.14-15.02,39.96-19.49,29.7-15.04,43.83-23.47,66.08-25.3,6.47-.53,11.79-.35,15.17-.13,7.15,15.16,14.31,30.33,21.46,45.49.42.89.42,1.93,0,2.83-.87,1.86-3.19,2.5-4.88,1.34l-5.03-3.42-62.09,33.36-20.15-7.27,4.95-8.26-166.46-23.45-4.23-.41c-10.39-1-20.74,2.23-28.71,8.97l-4.71,3.98,18.83,20.15,16.18-7.93-.66,7.27-37.32,20.15-3.96,17.17,40.29-21.4,6.94,6.54-12.55,7.6,1.32,5.61,40.62-19.75.66,3.56-71.51,36.43c-9.35,4.76-20.62,3.62-28.82-2.93l-28.75-22.96c-5.2-4.16-12.34-4.93-18.31-1.97l-18.07,8.93v6.28l19.82-9.25,1.32,4.95L0,217.35v11.89l17.83-9.25,36.99,35.51,7.6-1.49-31.71-34.35s2.31-5.28,13.87,0c6.94,6.94,26.09,16.98,39.96,15.76-5.51,2.64-10.07,5.1-13.28,6.92-2.85,1.62-3.74,5.31-1.92,8.04l94.46-39.3,13.21,9.91,104.7-40.62h23.78c-47.53,22.37-104.04,44.38-169.03,61.45-28.6,7.51-56.03,13.33-81.98,17.82-2.86,1.54-5.73,3.08-8.59,4.62l6.61,8.59,6.61-2.97,5.28,8.59c53.21-17.87,96.6-31.05,125.83-39.63,73.82-21.69,114.44-30.86,168.77-60.44,16.78-9.14,30.6-17.89,40.77-24.74,5.36-3.61,8.43-9.94,7.49-16.34ZM241.76,124.54h-17.5l22.76-15.6c4.18-2.86,9.46-3.6,14.26-1.98l9.55,3.21-29.06,14.37ZM291.48,110.71l-20.66,11.84-1.98-6.28,8.79-5.25c.65-.39.66-1.34,0-1.73l-6.49-3.92-8.59-5.61,7.93-1.98,20.73,8.73c1.79.75,1.94,3.23.26,4.2ZM295.11,165.84c-2.8,3.09-6.94,4.61-11.08,4.07l-5.95-.78-142.02-30.72,164.15,21.8-5.11,5.63Z"/>
      <path class="cls-1" d="M397.65,46.27L365.61,0s-5.95,4.65-5.95,7.95,13.21,46.24,13.21,46.24l22.46,38.64,13.87-2.31-11.56-44.26ZM388.73,46.42l-24.77-32.52V4.98l27.41,37.65-2.64,3.78Z"/>
      <path class="cls-1" d="M423.74,170.17l32.04,46.27s5.95-4.65,5.95-7.95-13.21-46.24-13.21-46.24l-27.27-46.92-9.06,10.59,11.56,44.26ZM432.66,170.02l24.77,32.52v8.92l-27.41-37.65,2.64-3.78Z"/>
      <path class="cls-1" d="M426.38,97.79c-3.3-7.27-28.73-1.32-28.73-1.32l9.78,26.09s22.26-16.84,18.95-24.77ZM404.59,108.37l-2.64-10.58,21.47,1.98-18.83,8.6Z"/>
    </g>
  </g>
</svg>