<?xml version="1.0" encoding="UTF-8"?>
<svg id="Layer_1" xmlns="http://www.w3.org/2000/svg" version="1.1" viewBox="0 0 24 14">
  <!-- Generator: Adobe Illustrator 29.7.1, SVG Export Plug-In . SVG Version: 2.1.1 Build 8)  -->
  <defs>
    <style>
      .st0 {
        fill: #3d3d3d;
        fill-rule: evenodd;
      }
    </style>
  </defs>
  <path class="st0" d="M3.8,5.3c-.5.5-1.2,1-2,1C.4,6.2-.3,4.3.1,3.2c.3-.8.7-1.2,1.1-1.5.3-.2.6-.2.9-.4,0,0,.2,0,.2-.2.2-.1.2-.3,0-.6C2.2.3,2.1,0,2.1,0c0,0,.6.6.6.8,0,.2,0,.4,0,.5-.5.7-1.6.6-2,1.9-.3,1,.7,2.6,1.8,1.9.8-.5,1-.7,1.4-1.3h0c.6-.9,1.2-2.6,4.2-2.9,4.2-.2,5.7,2,6.6,2.3s1.2-.2,1.9-.6c.5-.3.7-.4,1.2-.8.2-.1-.5,0-.2-.2.3-.2.7-.4.9-.6.1,0,.4.2.7,0,.3-.2.4-.2.9-.3.5,0,1.3-.2,1.9.5.9.3,1.4.3,1.9.4.5,0,.2.4,0,.4-.4.5-1.2.9-2.8,1-1.3-.1-1.9.8-2.9,1.9-1.2,1.3-1.6,1.6-2.3,2.9-.7.7-1.5.4-2.4.7-.7.2-.7.2-1.2.5-.4.5-.7,1.2-1.6,2.4,0,.1-.2.2-.3.3-.1,0-.2,0-.1.2.6.3.8.5,1.3.7.2,0,.4-.1.6,0,.3.1.4.3.5.4-.2.2-1,.3-1.4.2-.1,0,0,0-.2,0-.2,0-.3-.2-.5-.3-.1,0,0,0-.2-.1-.3,0-.8-.3-.9-.3,0,0-.2,0-.2.3-.4-.2-1-.7-1.4-1.2-.3.2-.5.5-1.1.6-.3,0-.6,0-1.4.2-.4,0-.2-.1-.7,0-.7.2-.6.2-.9.1,0-.1.1-.4.2-.5.2,0,.3,0,.5,0,0,0,.1-.3.5-.2.3,0,.5.1.9-.2.3,0,.3,0,.5,0,.6,0,.9-.3,1-.4-.1-.2-.4-.4-.7-.7-.4-.4-.7-.5-1.2-.9,0,0,0-.2.2-.4.7-.7,1.3-1.1,1.3-1.4-.8.1-2.6,0-3-2.3ZM9.1,9.6c.5-.4.8-.7,1-1,0-.3.2-.5.5-.5,0-.5,0-.7,0-.7,0,0-.4-.5-.4-.5s-1,.9-1.2.9,0,.6,0,1.7ZM7.6,8.9l-.6.5c.1.5.4.9.8,1,.2-.2.2-.7-.2-1.5ZM9.3,10.8v.4c.5,0,.9-.2,1-.7.2-.7.3-.6.2-.6-.2,0-.6.4-1.2.9h0Z"/>
</svg>