<?xml version="1.0" encoding="UTF-8"?>
<svg id="baseball" xmlns="http://www.w3.org/2000/svg" version="1.1" viewBox="0 0 56.7 56.7">
  <!-- Generator: Adobe Illustrator 29.7.1, SVG Export Plug-In . SVG Version: 2.1.1 Build 8)  -->
  <defs>
    <style>
      .st0 {
        fill: #3d3d3d;
      }
    </style>
  </defs>
  <path class="st0" d="M41.3,10.2c-.2,0-.5,0-.7.1-1.7.2-1.6,2.4-1.6,2.4,0,0-2.9-.1-4.3-.1-1.6,0-3.2.2-4.7.6-.3.2-.3.8-.3.8,0,0-1.2.6-1.4,1.1-.4,1,0,2.1.9,2.6,1.4.9,5.3,1.6,5.3,1.6v.2c-.4.6-1,1.2-1.5,1.8-.3-.1-.7-.2-1-.4-.8-.4-2.7-1.7-3.4-2.1s-1.2.1-1.1.4,1.7,1.8,1.7,1.8c0,0-6.6-.2-8.9.1s-4.7,2.5-4.7,2.5c0,0-1.3.4-2.9,1-1.3.6-2.4,1.5-3.3,2.6-.4.5-.7,1-1,1.5-.7-.1-1.4-.2-2.1-.3-.3,0-.6,0-.9.1.4,0,.8.3,1.1.6.3.2.5.6.3,1-1.1-.3-2.2-.9-3.1-1.7l.3.8h-.5c-.5-.3-1-.6-1.4-.9-.6-.3-1-1-.8-1.7l-.4.4c-.5.6-.5,1.3,0,1.9-.4.1-.7.1-.9.4.4,0,.8.2,1.2.4.7.6,1.3,1.2,1.9,1.8l-1.1-.2s0,.4,1.1.8c1,.3,2,.3,3,0,0,.2-.2.3-.4.4l-1.1.3c.2.1.5.2.7.3.7,0,1.5,0,2.2-.2.2,0,.4-.2.5-.4.6,0,1.3,0,1.9,0,1-.2,1.7-1.5,1.7-1.5l.2,1.1c.2-.3.4-.6.7-.8.8-.4,1.4-1,1.7-1.8.2-.8.2-1.5,0-2.3,0-.5-.1-1.8-.1-1.8l.8-.2v1.8c0,1.3.3,2.6,1.1,3.6.6.6,2.3,1.6,2.3,1.7s.2.4,0,.9-.7.9-1.9,1.9-1.5,1.5-.6,2.4,3.6,3.7,4.6,4.7.9,1.2.8,1.3-.4,0-.8,0-1-.2-.9,0v2.2c0,.6,0,.5.6.5.6,0,1.2-.2,1.6-.6.6-.5.9-1.2.9-2,0-.9-.2-1.8-.6-2.6-.6-.7-3.5-3.6-3.3-4s1.9-1.9,1.9-1.9c0,.6-.3,1.3-.6,1.8-.4.7-.2,1,1,1.6s3,1.8,3,1.8c0,0-1,.9-.5,1s1.8.9,2,.9c.3,0,.5.1.8.2.4.2.7.4,1.1.6-.5,0-.5.3-.3.7l.6,1.5c.4-.1.9-.3,1.3-.5.4-.2.3-.6.4-1s.1-.5.1-.5c0,0,1.6,0,2.5,0,.6,0,1.3,0,1.9-.3.3-.3.6-.6.8-1,.5,0,.9.2,1.4.3.6.2,1.3.3,1.9.2.6,0,3.2-1.3,4.3-1.7s.9-.6,1-1.3.3-.7-.2-1.2l-2.4-2.9c0-.2,0-.3,0-.5,0-.2.4-.2,1.6-1.5s1.1-4,1.3-4.1c.4-.6.8-1.1,1.3-1.6.8-1.1,1.5-2.3,2.2-3.5,1.8.3,3.9.4,5.5-.7h0c.3.2.6.2.8,0,.2,0,.3.1.5.2.3.1.6.6,1.1.7.8,0,1.5-.6,1.7-1.4.1-.5,0-1.1-.5-1.4-.4-.2-.7-.7-1.3-1.1-.6-.5-1.3-1.2-1.8-1.8-.4-.6-.8-1.1-1.3-1.6-.5-.5-1.1-.9-1.8-1.1.1-.2.2-.5.2-.8v-1.5c0-.4,0-.3-.4.2-.2.3-.4.7-.7.9-.2-.3-.5-.5-.7-.8-.3-.4-.4-.6-.5-.1s0,1.6,0,1.8c0,.1,0,.3,0,.4-.2-.1-.5-.4-.9-.2-.8.2-1.7,1.2-2.7,2-.8.5-1.5,1.1-2.2,1.8,0,0-1.7-.4-2.2-.5s-.6-.4-.7-1.1c0-.5,0-1,.2-1.4.1-.5.3-.9.6-1.3,0,0,1.3.4,1.5.4s.4-.2.5-.5c0-.2.2-.3.3-.5,0,0,.5.3.5,0v-.8c.3-.1.6-.2.9-.2.5,0,.5-.4.3-.4-.2,0-.3,0-.4-.2,0-.6-.3-1.2-.5-1.8,0-.7-.5-1.2-1.6-1.2ZM49.1,22.2l1.4.2c.5,0,1,0,1.5-.2l.3.2c-1.5.9-3.2,1.2-4.9.8.1-.2.3-.4.5-.6.4-.2.8-.3,1.2-.4ZM25.4,30.7c1.3,1.3,2.9,2.4,4.7,3,2.9,1,4.2,1.3,4.2,1.3,0,.7-.2,1.3-.3,2-.2.7-.4,1.5-.7,2.2-.2.8-.3,1.8-.5,2.3s-2.9.5-3.7.4h-.8c-1-1-2-1.8-3.2-2.5-.5-.3-1.1-.6-1.7-.9v-2.5c.6-.8,1-1.7,1.4-2.6.4-.9.6-1.8.6-2.7ZM37.7,36.6s1.3.9,2.4,1.5,1.4.9,1.1,1.1c-.5.5-1.1.9-1.8,1.2-.8.3-1.7.6-2.6.7-.3,0-.4-.2-.4-.5-.2-.3-.4-.6-.7-.9l2-3.1Z"/>
</svg>