<svg width="20" height="20" viewBox="0 0 20 20" fill="none" xmlns="http://www.w3.org/2000/svg">
<path d="M19.1483 13.5857C19.1483 17.0707 17.0707 19.1483 13.5857 19.1483H12.4464C11.9198 19.1483 11.489 18.7174 11.489 18.1908V12.6666C11.489 12.4081 11.6996 12.1879 11.9581 12.1879L13.6431 12.1591C13.7772 12.1496 13.8921 12.0538 13.9208 11.9198L14.2559 10.0911C14.2846 9.9188 14.1506 9.75604 13.9687 9.75604L11.9294 9.78476C11.6613 9.78476 11.4507 9.57413 11.4411 9.31563L11.4028 6.96997C11.4028 6.81678 11.5273 6.68275 11.69 6.68275L13.9878 6.64444C14.1506 6.64444 14.275 6.51999 14.275 6.35723L14.2367 4.05942C14.2367 3.89666 14.1123 3.77221 13.9495 3.77221L11.3645 3.81051C9.77519 3.83924 8.5114 5.14131 8.54012 6.73061L8.58799 9.3635C8.59757 9.63157 8.38694 9.8422 8.11886 9.85178L6.96997 9.87093C6.80721 9.87093 6.68275 9.99539 6.68275 10.1581L6.71147 11.9772C6.71147 12.14 6.83593 12.2645 6.99869 12.2645L8.14758 12.2453C8.41566 12.2453 8.62629 12.4559 8.63586 12.7144L8.72203 18.1717C8.7316 18.7078 8.30077 19.1483 7.76462 19.1483H5.56257C2.07759 19.1483 0 17.0707 0 13.5761V5.56257C0 2.07759 2.07759 0 5.56257 0H13.5857C17.0707 0 19.1483 2.07759 19.1483 5.56257V13.5857Z" fill="#3D3D3D"/>
</svg>
