<?xml version="1.0" encoding="UTF-8"?>
<svg id="Layer_2" data-name="Layer 2" xmlns="http://www.w3.org/2000/svg" viewBox="0 0 256 255.6">
  <defs>
    <style>
      .cls-1 {
        fill: #fff;
      }
    </style>
  </defs>
  <g id="Layer_1-2" data-name="Layer 1">
    <g>
      <path class="cls-1" d="M135.44,190.76l-.04-18-14.91-.04-.04,18.12c-4.38,1.36-8.27,3.75-11.54,7.38l-39.94,44.42c-12.69,14.11-33.54,16.91-49.59,7.38-16.06-9.53-23.49-29.21-17.1-47.2l22.93-66.47c9.68-28.05,41.17-41.44,67.56-27.11,19.92-17.75,50.23-17.96,70.39.03,25.84-14.12,57.63-1.59,67.31,26.36l23.39,67.55c6.11,17.92-1.3,37.38-17.25,46.83s-36.9,6.71-49.6-7.41l-39.92-44.38c-3.21-3.56-6.99-5.98-11.65-7.46ZM145.48,147.92l-.08-14.85-34.94.02v14.85s35.02-.02,35.02-.02ZM59.11,155.71l-14.91.06.02,14.81,14.9.04.04,14.88,14.87.02.06-14.9,14.89-.03.03-14.85-14.91-.07-.12-14.86-14.84.04-.04,14.86ZM185.49,141.04c-12.71,1.66-20.97,13.2-19.28,25.27,1.68,11.99,12.82,20.46,24.7,19.05,12.39-1.46,21.14-12.62,19.65-24.87-1.46-12.03-12.38-21.11-25.07-19.45Z"/>
      <path class="cls-1" d="M135.44,190.76l-.09,15.02-14.83-.02-.05-14.93c5.07-1.48,10.23-1.58,14.98-.07Z"/>
      <polygon class="cls-1" points="74.1 155.67 74.09 170.62 59.12 170.63 59.11 155.71 74.1 155.67"/>
      <path class="cls-1" d="M135.37,81.64c-5.13-.27-9.72-.29-14.93.04v-23.26c0-15.92,12.79-28.55,28.32-28.83,15.74-.29,29.08,12.25,29.27,28.33.1,8.23,6.18,14.49,14.49,14.6,8.57.11,15.7-6.36,15.7-15.14V.05s14.94-.05,14.94-.05l-.06,57.87c-.02,16.79-14.05,29.68-30.58,29.56s-29.19-12.77-29.37-29.01c-.09-7.88-6.29-13.91-13.91-13.92s-13.85,6.05-13.87,13.92v23.24Z"/>
      <path class="cls-1" d="M186.48,156c4.28-1.13,8.11,1.56,9.1,5.39s-1.43,7.87-5.22,8.93-7.82-1.17-9.04-4.74c-1.36-3.97.74-8.41,5.15-9.58Z"/>
    </g>
  </g>
</svg>