<?xml version="1.0" encoding="utf-8"?>
<!-- Generator: Adobe Illustrator 28.0.0, SVG Export Plug-In . SVG Version: 6.00 Build 0)  -->
<svg version="1.1" id="Layer_2_00000120544199298056795910000010207794290174852227_"
	 xmlns="http://www.w3.org/2000/svg" xmlns:xlink="http://www.w3.org/1999/xlink" x="0px" y="0px" viewBox="0 0 41.1 37"
	 style="enable-background:new 0 0 41.1 37;" xml:space="preserve">
<style type="text/css">
	.st0{fill:#3D3D3D;}
</style>
<path id="note-edit-solid" class="st0" d="M38.3,5.2l-4.6-4.6c-0.8-0.8-2.1-0.8-2.9,0l-4.1,4.1H4.7c-1.4,0-2.5,1.1-2.5,2.5v27.3
	c0,1.4,1.1,2.5,2.5,2.5h27.3c1.4,0,2.5-1.1,2.5-2.5V11.8l3.7-3.7C39.1,7.3,39.1,6,38.3,5.2z M20.7,22.2l-5.2,1.2l1.2-5.2L28.6,6.4
	l4,4L20.7,22.2z M33.9,9l-4-4l2.3-2.3l4,4L33.9,9z"/>
</svg>
