<svg width="23" height="10" viewBox="0 0 23 10" fill="none" xmlns="http://www.w3.org/2000/svg">
<path d="M17.9141 4.23633H18.5C19.0742 4.23633 19.498 4.14062 19.7715 3.94922C20.0449 3.75781 20.1816 3.45703 20.1816 3.04688C20.1816 2.64062 20.041 2.35156 19.7598 2.17969C19.4824 2.00781 19.0508 1.92188 18.4648 1.92188H17.9141V4.23633ZM17.9141 5.71289V9H16.0977V0.433594H18.5938C19.7578 0.433594 20.6191 0.646484 21.1777 1.07227C21.7363 1.49414 22.0156 2.13672 22.0156 3C22.0156 3.50391 21.877 3.95312 21.5996 4.34766C21.3223 4.73828 20.9297 5.04492 20.4219 5.26758C21.7109 7.19336 22.5508 8.4375 22.9414 9H20.9258L18.8809 5.71289H17.9141Z" fill="#323232"/>
<path d="M12.4531 9H10.6367V1.94531H8.31055V0.433594H14.7793V1.94531H12.4531V9Z" fill="#323232"/>
<path d="M7.05078 0.433594V5.97656C7.05078 6.60938 6.9082 7.16406 6.62305 7.64062C6.3418 8.11719 5.93359 8.48242 5.39844 8.73633C4.86328 8.99023 4.23047 9.11719 3.5 9.11719C2.39844 9.11719 1.54297 8.83594 0.933594 8.27344C0.324219 7.70703 0.0195312 6.93359 0.0195312 5.95312V0.433594H1.83008V5.67773C1.83008 6.33789 1.96289 6.82227 2.22852 7.13086C2.49414 7.43945 2.93359 7.59375 3.54688 7.59375C4.14062 7.59375 4.57031 7.43945 4.83594 7.13086C5.10547 6.81836 5.24023 6.33008 5.24023 5.66602V0.433594H7.05078Z" fill="#323232"/>
</svg>
