<?xml version="1.0" encoding="utf-8"?>
<!-- Generator: Adobe Illustrator 27.4.0, SVG Export Plug-In . SVG Version: 6.00 Build 0)  -->
<svg version="1.1" xmlns="http://www.w3.org/2000/svg" xmlns:xlink="http://www.w3.org/1999/xlink" x="0px" y="0px"
	 viewBox="0 0 45 45" style="enable-background:new 0 0 45 45;" xml:space="preserve">
<style type="text/css">
	.st0{display:none;}
	.st1{display:inline;}
	.st2{clip-path:url(#SVGID_00000127759921730525220960000001207314977366243767_);}
	.st3{fill:#FAA51A;}
	.st4{fill:#FFFFFF;}
	.st5{clip-path:url(#SVGID_00000066473403806645319270000011913736512926617528_);}
	.st6{clip-path:url(#SVGID_00000030461950511021423020000011928508166426392751_);}
	.st7{fill:#55AA46;}
</style>
<g id="Layer_1" class="st0">
	<g class="st1">
		<defs>
			<rect id="SVGID_1_" width="45" height="45"/>
		</defs>
		<clipPath id="SVGID_00000048495873027683914600000015647434623257276551_">
			<use xlink:href="#SVGID_1_"  style="overflow:visible;"/>
		</clipPath>
		<g id="Group_3312" style="clip-path:url(#SVGID_00000048495873027683914600000015647434623257276551_);">
			<path id="Path_10870" class="st3" d="M41,4c3.6,3.3,3.8,10.9,4,18.5c-0.1,7.6-0.4,15.2-4,18.5c-3.3,3.6-10.9,3.8-18.5,4
				C14.9,44.9,7.3,44.6,4,41c-3.6-3.3-3.8-10.9-4-18.5C0.1,14.9,0.4,7.3,4,4c3.3-3.6,10.9-3.8,18.5-4C30.1,0.1,37.7,0.4,41,4"/>
			<path id="Path_10871" class="st4" d="M38.4,22.5c0,8.8-7.1,15.9-15.9,15.9S6.6,31.3,6.6,22.5c0-8.8,7.1-15.9,15.9-15.9l0,0
				C31.3,6.6,38.4,13.7,38.4,22.5"/>
			<path id="Path_10872" class="st3" d="M22.5,30.1c-3.6,0-6.5-2.9-6.5-6.5c0-1.7,0.7-3.4,1.9-4.6c0.3-0.3,0.8-0.3,1.1,0
				s0.3,0.8,0,1.1c-1.9,1.9-1.9,5,0,7c1.9,1.9,5,1.9,7,0c1.9-1.9,1.9-5,0-7c0,0,0,0,0,0c-0.3-0.3-0.3-0.8,0-1.1s0.8-0.3,1.1,0
				c2.5,2.5,2.6,6.7,0,9.2C25.9,29.4,24.2,30.1,22.5,30.1"/>
			<path id="Path_10873" class="st3" d="M22.5,23.6c-0.4,0-0.8-0.4-0.8-0.8l0,0v-7.2c0-0.4,0.4-0.8,0.8-0.8c0.4,0,0.8,0.4,0.8,0.8
				v7.2C23.3,23.3,22.9,23.6,22.5,23.6L22.5,23.6"/>
		</g>
	</g>
</g>
<g id="Layer_2" class="st0">
	<g class="st1">
		<defs>
			<rect id="SVGID_00000062899554313249978450000006307556111903806123_" width="45" height="45"/>
		</defs>
		<clipPath id="SVGID_00000176012084417478990960000000526389437569988512_">
			<use xlink:href="#SVGID_00000062899554313249978450000006307556111903806123_"  style="overflow:visible;"/>
		</clipPath>
		<g id="Group_3310" style="clip-path:url(#SVGID_00000176012084417478990960000000526389437569988512_);">
			<path id="Path_10867" class="st3" d="M41,4c3.6,3.3,3.8,10.9,4,18.5c-0.1,7.6-0.4,15.2-4,18.5c-3.3,3.6-10.9,3.8-18.5,4
				C14.9,44.9,7.3,44.6,4,41c-3.6-3.3-3.8-10.9-4-18.5C0.1,14.9,0.4,7.3,4,4c3.3-3.6,10.9-3.8,18.5-4C30.1,0.1,37.7,0.4,41,4"/>
			<path id="Path_10868" class="st4" d="M38.4,22.5c0,8.8-7.1,15.9-15.9,15.9S6.6,31.3,6.6,22.5c0-8.8,7.1-15.9,15.9-15.9l0,0
				C31.3,6.6,38.4,13.7,38.4,22.5"/>
			<path id="Path_10869" class="st3" d="M21.3,28.4c0-0.7,0.5-1.3,1.2-1.3c0,0,0.1,0,0.1,0c0.7,0,1.3,0.7,1.2,1.4
				c0,0.7-0.6,1.2-1.2,1.2C21.8,29.7,21.3,29.2,21.3,28.4C21.3,28.5,21.3,28.4,21.3,28.4 M21.8,25.4l-0.3-10.1h2l-0.3,10.1H21.8z"/>
		</g>
	</g>
</g>
<g id="Layer_3">
	<g>
		<defs>
			<rect id="SVGID_00000132804675706071098590000016961712992014713736_" x="-0.5" width="45" height="45"/>
		</defs>
		<clipPath id="SVGID_00000081617935764922693570000004012380621706486699_">
			<use xlink:href="#SVGID_00000132804675706071098590000016961712992014713736_"  style="overflow:visible;"/>
		</clipPath>
		<g id="Group_3304" style="clip-path:url(#SVGID_00000081617935764922693570000004012380621706486699_);">
			<path id="Path_10846" class="st7" d="M40.5,4c3.6,3.3,3.8,10.9,4,18.5c-0.1,7.6-0.4,15.2-4,18.5c-3.3,3.6-10.9,3.8-18.5,4
				c-7.6-0.1-15.2-0.4-18.5-4c-3.6-3.3-3.8-10.9-4-18.5c0.1-7.6,0.4-15.2,4-18.5C6.9,0.4,14.4,0.1,22,0C29.6,0.1,37.2,0.4,40.5,4"/>
			<path id="Path_10847" class="st4" d="M38,22.5c0,8.8-7.1,15.9-15.9,15.9S6.1,31.3,6.1,22.5c0-8.8,7.1-15.9,15.9-15.9l0,0
				C30.8,6.6,38,13.7,38,22.5"/>
			<path id="Path_10848" class="st7" d="M15.2,23.4l4.1,4.1c0.2,0.2,0.6,0.2,0.9,0l8.7-8.7c0.2-0.2,0.2-0.6,0-0.9l-0.5-0.5
				c-0.2-0.2-0.6-0.2-0.9,0l-7.3,7.5c-0.2,0.2-0.6,0.2-0.9,0l-2.7-2.8c-0.2-0.2-0.6-0.2-0.9,0l-0.5,0.5C15,22.8,14.9,23.2,15.2,23.4
				C15.1,23.4,15.2,23.4,15.2,23.4"/>
		</g>
	</g>
</g>
</svg>
